USFL
nRows=234
nColumns=2
inDegrees=yes
endheader
time	tib_ant_r	
2.72782	 67.285937	
2.76109	 67.297843	
2.79435	 67.316638	
2.82762	 67.315014	
2.86089	 67.311825	
2.89415	 67.315250	
2.92742	 67.345722	
2.96069	 67.348676	
2.99395	 67.322061	
3.02722	 67.300888	
3.06048	 67.295900	
3.09375	 67.244998	
3.12702	 67.226159	
3.16028	 67.200489	
3.19355	 67.203783	
3.22681	 67.208485	
3.26008	 67.190599	
3.29335	 67.185231	
3.32661	 67.191244	
3.35988	 67.196618	
3.39315	 67.200477	
3.42641	 67.200349	
3.45968	 67.196799	
3.49294	 67.201262	
3.52621	 67.189721	
3.55948	 67.185648	
3.59274	 67.206754	
3.62601	 67.210059	
3.65927	 67.203522	
3.69254	 67.206403	
3.72581	 67.203818	
3.75907	 67.206507	
3.79234	 67.216388	
3.8256	 67.200540	
3.85887	 67.206504	
3.89214	 67.226101	
3.9254	 67.229873	
3.95867	 67.215533	
3.99194	 67.212028	
4.0252	 67.205771	
4.05847	 67.209290	
4.09173	 67.199878	
4.125	 67.189350	
4.15827	 67.212145	
4.19153	 67.217101	
4.2248	 67.197476	
4.25806	 67.186928	
4.29133	 67.193423	
4.3246	 67.183143	
4.35786	 67.229199	
4.39113	 67.242842	
4.4244	 67.227022	
4.45766	 67.174746	
4.49093	 67.232340	
4.52419	 67.389185	
4.55746	 67.525539	
4.59073	 67.563813	
4.62399	 67.874487	
4.65726	 67.984911	
4.69052	 67.697394	
4.72379	 67.651119	
4.75706	 67.714192	
4.79032	 67.345627	
4.82359	 67.491756	
4.85685	 67.404081	
4.89012	 66.777092	
4.92339	 66.485501	
4.95665	 66.084140	
4.98992	 65.719659	
5.02319	 65.663548	
5.05645	 65.276772	
5.08972	 65.104881	
5.12298	 65.118449	
5.15625	 64.667494	
5.18952	 64.279792	
5.22278	 64.112139	
5.25605	 63.781142	
5.28931	 63.769728	
5.32258	 63.506888	
5.35585	 63.268931	
5.38911	 63.234142	
5.42238	 63.046030	
5.45565	 62.908849	
5.48891	 62.873211	
5.52218	 62.625216	
5.55544	 62.474022	
5.58871	 62.475928	
5.62198	 62.291203	
5.65524	 62.281301	
5.68851	 62.190823	
5.72177	 62.131082	
5.75504	 62.149392	
5.78831	 61.972202	
5.82157	 61.843792	
5.85484	 61.890318	
5.8881	 61.713701	
5.92137	 61.595015	
5.95464	 61.553665	
5.9879	 61.520799	
6.02117	 61.565702	
6.05444	 61.595526	
6.0877	 61.617144	
6.12097	 61.649611	
6.15423	 61.798158	
6.1875	 61.922318	
6.22077	 61.927463	
6.25403	 61.961107	
6.2873	 61.986349	
6.32056	 61.965569	
6.35383	 61.996835	
6.3871	 62.025365	
6.42036	 61.915396	
6.45363	 61.795295	
6.4869	 61.776958	
6.52016	 61.782659	
6.55343	 61.752634	
6.58669	 61.741412	
6.61996	 61.780544	
6.65323	 61.883791	
6.68649	 61.811921	
6.71976	 61.696131	
6.75302	 61.675548	
6.78629	 61.476852	
6.81956	 61.294965	
6.85282	 61.270916	
6.88609	 61.125631	
6.91935	 60.984462	
6.95262	 61.010680	
6.98589	 61.024863	
7.01915	 61.073472	
7.05242	 61.089048	
7.08569	 61.050827	
7.11895	 61.046318	
7.15222	 61.019863	
7.18548	 60.985483	
7.21875	 60.989363	
7.25202	 60.938803	
7.28528	 60.955722	
7.31855	 60.954588	
7.35181	 60.971946	
7.38508	 60.944763	
7.41835	 60.952521	
7.45161	 60.984980	
7.48488	 61.002043	
7.51815	 61.021061	
7.55141	 61.049830	
7.58468	 61.052881	
7.61794	 61.063318	
7.65121	 61.108482	
7.68448	 61.151096	
7.71774	 61.154875	
7.75101	 61.148330	
7.78427	 61.096144	
7.81754	 61.050178	
7.85081	 61.081456	
7.88407	 61.014224	
7.91734	 60.962473	
7.9506	 60.950149	
7.98387	 60.859352	
8.01714	 60.814063	
8.0504	 60.810788	
8.08367	 60.843193	
8.11694	 60.954701	
8.1502	 60.921153	
8.18347	 60.891331	
8.21673	 60.882771	
8.25	 60.811302	
8.28327	 60.760017	
8.31653	 60.710382	
8.3498	 60.680005	
8.38306	 60.659125	
8.41633	 60.658933	
8.4496	 60.611829	
8.48286	 60.581598	
8.51613	 60.471531	
8.5494	 60.409870	
8.58266	 60.391095	
8.61593	 60.335865	
8.64919	 60.372116	
8.68246	 60.383013	
8.71573	 60.406065	
8.74899	 60.444971	
8.78226	 60.496775	
8.81552	 60.473834	
8.84879	 60.469778	
8.88206	 60.493747	
8.91532	 60.418480	
8.94859	 60.410954	
8.98185	 60.403402	
9.01512	 60.403602	
9.04839	 60.421303	
9.08165	 60.440219	
9.11492	 60.546941	
9.14819	 60.574080	
9.18145	 60.570168	
9.21472	 60.532713	
9.24798	 60.558908	
9.28125	 60.592106	
9.31452	 60.601257	
9.34778	 60.642822	
9.38105	 60.660624	
9.41431	 60.547938	
9.44758	 60.631699	
9.48085	 61.201192	
9.51411	 61.280754	
9.54738	 60.848949	
9.58065	 60.859242	
9.61391	 61.032531	
9.64718	 61.284870	
9.68044	 61.428991	
9.71371	 61.574749	
9.74698	 61.507081	
9.78024	 61.547970	
9.81351	 61.576755	
9.84677	 61.682727	
9.88004	 61.673329	
9.91331	 61.720192	
9.94657	 61.797107	
9.97984	 61.853314	
10.0131	 61.940088	
10.0464	 61.944390	
10.0796	 61.942273	
10.1129	 61.932615	
10.1462	 61.911303	
10.1794	 61.913445	
10.2127	 61.912876	
10.246	 61.883136	
10.2792	 61.938452	
10.3125	 61.955798	
10.3458	 61.960167	
10.379	 61.954889	
10.4123	 61.930109	
10.4456	 61.958408	
10.4788	 61.983085	
